<?xml version="1.0" encoding="utf-8"?>
<!-- Generator: Adobe Illustrator 27.0.1, SVG Export Plug-In . SVG Version: 6.00 Build 0)  -->
<svg version="1.1" id="Layer_1" xmlns="http://www.w3.org/2000/svg" xmlns:xlink="http://www.w3.org/1999/xlink" x="0px" y="0px"
	 viewBox="0 0 24 24" style="enable-background:new 0 0 24 24;" xml:space="preserve">
<style type="text/css">
	.st0{fill:url(#SVGID_1_);}
	.st1{fill:url(#SVGID_00000004516311728184956060000010170839971165082806_);}
	.st2{fill:url(#SVGID_00000016791363422122998870000014247687711560369340_);}
	.st3{fill:#804B24;}
	.st4{fill:url(#SVGID_00000028288114984704246740000007127410048481200827_);}
	.st5{fill:url(#SVGID_00000088128958413769924120000011976383353090456456_);}
	.st6{fill:url(#SVGID_00000069359864323718020480000012846312723822963641_);}
	.st7{fill:url(#SVGID_00000170965190943386261120000004652649807124777350_);}
	.st8{fill:url(#SVGID_00000164516070411360055380000013877535266914634132_);}
	.st9{fill:url(#SVGID_00000176762362599853069010000016486042449104717739_);}
	.st10{fill:url(#SVGID_00000043458727442216475910000016527004379616519099_);}
	.st11{fill:url(#SVGID_00000061440016337723913260000018259306462898072476_);}
	.st12{fill:url(#SVGID_00000140708873249035632330000004364364547151827386_);}
	.st13{fill:url(#SVGID_00000037669308300435550200000015737668469870126009_);}
	.st14{fill:url(#SVGID_00000170241724592186165650000008204407661355419318_);}
	.st15{fill:url(#SVGID_00000134955049597489952570000003535561643972183742_);}
	.st16{fill:url(#SVGID_00000041282968629954808250000005300888013201080255_);}
	.st17{fill:url(#SVGID_00000008830061568035204850000017968123972462428801_);}
	.st18{opacity:0.75;fill:url(#SVGID_00000058578793081230204700000011843562105464475568_);enable-background:new    ;}
	.st19{opacity:0.75;fill:url(#SVGID_00000062184834514672220310000006257308134529529007_);enable-background:new    ;}
	.st20{opacity:0.75;fill:url(#SVGID_00000170237047142270478490000014843051243668995719_);enable-background:new    ;}
	.st21{opacity:0.75;fill:url(#SVGID_00000070117149938706260390000005124601468848447389_);enable-background:new    ;}
</style>
<g>
	
		<linearGradient id="SVGID_1_" gradientUnits="userSpaceOnUse" x1="7.9486" y1="9.7454" x2="12.21" y2="18.8008" gradientTransform="matrix(1 0 0 -1 0 26)">
		<stop  offset="1.325650e-03" style="stop-color:#FFCB4B"/>
		<stop  offset="1" style="stop-color:#FFD748"/>
	</linearGradient>
	<path class="st0" d="M15.2,17.2c0,0.4-0.8,0.9-1.9,0.9c-1.1,0-6.3-2-7.6-4c-1.7-2.6-3.5-3.4-4.4-4c-1-0.6,0.3-4,1.6-5
		c1.3-1,1.8,0.8,3.4,0.4c1.5-0.4,4.2-0.1,5.3,0.3c1.1,0.3,8.4,4.8,8.3,6.5c-0.1,1.6-0.3,2.4-1.5,2.4c0,0,0.1,1.3-1.6,1.3
		C16.9,16,16.9,17.4,15.2,17.2z"/>
	
		<linearGradient id="SVGID_00000165929325021379995150000015198261941261511856_" gradientUnits="userSpaceOnUse" x1="11.9401" y1="14.2006" x2="24.8955" y2="3.7279" gradientTransform="matrix(1 0 0 -1 0 26)">
		<stop  offset="0" style="stop-color:#FFBC47;stop-opacity:0"/>
		<stop  offset="1" style="stop-color:#C86F34"/>
	</linearGradient>
	<path style="fill:url(#SVGID_00000165929325021379995150000015198261941261511856_);" d="M17.9,13c-0.6,0.1-3.5-1.8-4.3-1.7
		c-1,0.1,0.8,0.5,2.3,1.4c2,1.1,3,2.2,1.1,2.7c-0.5,0.1-3.2-2.2-4.7-2c-0.3,0,1.1,0.8,2.8,1.8s0.8,1.4,0,1.3
		c-0.8-0.1-3.7-1.7-4.4-1.6c-0.7,0.1,1.4,0.6,3.1,1.7c0.9,0.5-0.6,0.8-2.2,0.9c0.8,0.3,1.5,0.5,1.9,0.5c1.1,0,1.9-0.5,1.9-0.9
		c1.6,0.3,1.7-1.2,1.7-1.2c1.7,0,1.6-1.3,1.6-1.3c1.2,0,1.5-0.8,1.5-2.4c0,0,0-0.1,0-0.2l-1.2-0.7C19,12.3,18.5,13,17.9,13z"/>
	
		<linearGradient id="SVGID_00000140720357381102372170000012428019577623076749_" gradientUnits="userSpaceOnUse" x1="7.2333" y1="10.0822" x2="11.4947" y2="19.1376" gradientTransform="matrix(1 0 0 -1 0 26)">
		<stop  offset="0" style="stop-color:#FFBB47;stop-opacity:0.9686"/>
		<stop  offset="2.651300e-03" style="stop-color:#FFBA47"/>
		<stop  offset="1" style="stop-color:#FFD748;stop-opacity:0"/>
	</linearGradient>
	<path style="fill:url(#SVGID_00000140720357381102372170000012428019577623076749_);" d="M16.9,16.3c-0.2-0.2-0.4-0.4-0.6-0.6
		c-5.2-4.3-5.9-1.1-8.3-2.7c-2.4-1.6-0.9-3.4-3-3.5C3.1,9.4,2,8.3,1.6,7C1,8.3,0.7,9.7,1.3,10.1c1,0.6,2.7,1.3,4.4,4
		c1.3,2,6.4,4,7.6,4c1.1,0,1.9-0.5,1.9-0.9C16.4,17.4,16.8,16.7,16.9,16.3z"/>
	<path class="st3" d="M13.7,11.5c0.9,0.3,1.8,0.7,2.7,1.2c0.4,0.2,0.9,0.5,1.3,0.8c0.5,0.2,0.7,0.7,0.8,1.2
		c-0.1-0.5-0.4-0.9-0.8-1.1c-0.4-0.2-0.8-0.5-1.3-0.8C15.5,12.3,14.6,11.9,13.7,11.5z"/>
	<path class="st3" d="M12.6,13.5c0.8,0.3,1.5,0.7,2.2,1.1c0.4,0.2,0.7,0.4,1.1,0.7l1,0.7c-0.7-0.4-1.4-0.9-2.1-1.3
		c-0.4-0.2-0.7-0.4-1.1-0.6C13.3,13.9,13,13.7,12.6,13.5z"/>
	<path class="st3" d="M10.8,15c0.8,0.2,1.6,0.6,2.3,0.9c0.7,0.4,1.5,0.7,2.2,1.2C13.7,16.5,12.3,15.7,10.8,15z"/>
	
		<linearGradient id="SVGID_00000094595165972605958260000001634510891987293073_" gradientUnits="userSpaceOnUse" x1="9.5891" y1="17.6681" x2="4.6428" y2="2.2967" gradientTransform="matrix(1 0 0 -1 0 26)">
		<stop  offset="0" style="stop-color:#FFBC47;stop-opacity:0"/>
		<stop  offset="1" style="stop-color:#C86F34"/>
	</linearGradient>
	<path style="fill:url(#SVGID_00000094595165972605958260000001634510891987293073_);" d="M15,17.5c-8.2-1-8.8-4.6-9.7-5.8
		c-1-1.3,0-2.2-0.8-1.9c-0.7,0.3-2.3,0.5-3.5-1C1,9.4,1,9.9,1.3,10.1c1,0.6,2.7,1.3,4.4,4c1.3,2,6.4,4,7.6,4
		C14.1,18.1,14.7,17.8,15,17.5z"/>
	
		<linearGradient id="SVGID_00000139987476402992625050000003876156966330887092_" gradientUnits="userSpaceOnUse" x1="3.7081" y1="17.1218" x2="10.4426" y2="28.3079" gradientTransform="matrix(1 0 0 -1 0 26)">
		<stop  offset="0" style="stop-color:#FFBC47;stop-opacity:0"/>
		<stop  offset="1" style="stop-color:#C86F34"/>
	</linearGradient>
	<path style="fill:url(#SVGID_00000139987476402992625050000003876156966330887092_);" d="M8.7,5.4c-0.8,0-1.7,0-2.3,0.2
		C4.9,5.9,4.3,4.4,3.2,5c1,0,1.3,1.2,2.5,1.2c0.9,0,1.7-0.2,2.5-0.2C8.3,5.7,8.5,5.5,8.7,5.4z"/>
	
		<linearGradient id="SVGID_00000125576373519733430000000003977612553346829976_" gradientUnits="userSpaceOnUse" x1="12.8697" y1="13.3447" x2="15.4379" y2="23.3609" gradientTransform="matrix(1 0 0 -1 0 26)">
		<stop  offset="0" style="stop-color:#FFBC47;stop-opacity:0"/>
		<stop  offset="1" style="stop-color:#C86F34"/>
	</linearGradient>
	<path style="fill:url(#SVGID_00000125576373519733430000000003977612553346829976_);" d="M19.6,14.2c0.3-0.4,0.4-1,0.4-1.9
		c0.1-1.6-7.3-6.1-8.3-6.5C11,5.6,9.7,5.4,8.5,5.4c-0.1,0-1.6,2.1-1.6,2.7c0,0.6,0.4,1.3,1.8,1.3s1.6-1.8,2.4-2
		c1.2-0.3,2.3,1.8,3.9,2.6c1.6,0.7,3.5,1.5,3.7,1.9C18.9,12.1,19.8,13,19.6,14.2z"/>
	
		<linearGradient id="SVGID_00000158020617016052134640000002023477858693541547_" gradientUnits="userSpaceOnUse" x1="20.3229" y1="16.6291" x2="5.7885" y2="17.9227" gradientTransform="matrix(1 0 0 -1 0 26)">
		<stop  offset="1.325650e-03" style="stop-color:#FFCB4B"/>
		<stop  offset="1" style="stop-color:#FFD748"/>
	</linearGradient>
	<path style="fill:url(#SVGID_00000158020617016052134640000002023477858693541547_);" d="M7.8,8.8C7.1,8.4,7.2,7.7,7.6,7.1
		c0.3-0.6,1.1-2.6,3-2.6c1.7,0,3.1,1,4.2,1.4c0.9,0.3,1.9,0.9,2.6,0.9c0.7,0,2-0.7,2.5-1.1c0.3-0.3,1.2,0,2.5,2.3
		c1.3,2.3,0.9,2.8,0.2,3c-0.7,0.2-1.6,0.4-1.8,1.1c-0.2,0.7-0.6,1.1-0.6,1.1s-0.6-1.5-1.6-2.1c-1.6-1-2.9-1.6-3.7-2.2
		c-0.8-0.6-2.7-2.1-3.5-2.1C10.3,6.9,9.3,9.6,7.8,8.8z"/>
	
		<linearGradient id="SVGID_00000048484099665350223210000014624849896985502849_" gradientUnits="userSpaceOnUse" x1="15.6438" y1="23.8626" x2="14.6165" y2="3.4308" gradientTransform="matrix(1 0 0 -1 0 26)">
		<stop  offset="0" style="stop-color:#FFBC47;stop-opacity:0"/>
		<stop  offset="1" style="stop-color:#C86F34"/>
	</linearGradient>
	<path style="fill:url(#SVGID_00000048484099665350223210000014624849896985502849_);" d="M19.9,13.3c0,0,0.4-0.4,0.6-1.1
		c0.2-0.7,1.2-1,1.8-1.1c0.5-0.1,0.9-0.5,0.4-1.8c-2.5-0.5-1.6,3.9-3.7,1.5c-2.1-2.5-3.8-2-4.5-2.4c-0.7-0.4-2.6-1.7-3.5-1.7
		c-0.9,0-1.5,2.6-3.5,2.1c0.1,0.1,0.1,0.1,0.2,0.2c1.5,0.8,2.5-1.9,3.3-1.9c0.8,0,2.7,1.5,3.5,2.1c0.8,0.6,2.1,1.1,3.7,2.2
		C19.3,11.8,19.9,13.3,19.9,13.3z"/>
	
		<linearGradient id="SVGID_00000135682255616896542460000018085407481765914038_" gradientUnits="userSpaceOnUse" x1="10.4318" y1="7.8871" x2="11.5732" y2="10.0939" gradientTransform="matrix(1 0 0 -1 0 26)">
		<stop  offset="1.325650e-03" style="stop-color:#FFCB4B"/>
		<stop  offset="1" style="stop-color:#FFD748"/>
	</linearGradient>
	<path style="fill:url(#SVGID_00000135682255616896542460000018085407481765914038_);" d="M10.3,19.1c-0.8,0-1-0.9-0.8-1.7
		c0.4-1,1.1-1.1,1.4-1.1c0.4,0,1.1,0.3,0.9,1.3C11.7,18.3,11.5,19.2,10.3,19.1z"/>
	
		<linearGradient id="SVGID_00000162333142948149244520000013508580995504315552_" gradientUnits="userSpaceOnUse" x1="12.21" y1="6.9674" x2="13.3515" y2="9.1742" gradientTransform="matrix(1 0 0 -1 0 26)">
		<stop  offset="1.325650e-03" style="stop-color:#FFCB4B"/>
		<stop  offset="1" style="stop-color:#FFD748"/>
	</linearGradient>
	<path style="fill:url(#SVGID_00000162333142948149244520000013508580995504315552_);" d="M12.7,19.5c-0.5,0-1-0.2-1-1.6
		c0-1.4,0.9-1.4,1.1-1.4c0.2,0,1,0.3,1,1.5C13.8,19.1,13.3,19.5,12.7,19.5z"/>
	
		<linearGradient id="SVGID_00000100361087698310705640000015653577010597430656_" gradientUnits="userSpaceOnUse" x1="12.7883" y1="8.2377" x2="5.6828" y2="8.2948" gradientTransform="matrix(1 0 0 -1 0 26)">
		<stop  offset="0" style="stop-color:#FFBC47;stop-opacity:0"/>
		<stop  offset="1" style="stop-color:#C86F34"/>
	</linearGradient>
	<path style="fill:url(#SVGID_00000100361087698310705640000015653577010597430656_);" d="M11.6,18.4c-0.4,0-0.9,0.1-1.2-0.2
		c-0.4-0.3-0.3-1.3,0-1.9c-0.3,0.1-0.6,0.4-0.9,1c-0.3,0.7,0,1.6,0.8,1.7C11,19.1,11.4,18.8,11.6,18.4z"/>
	
		<linearGradient id="SVGID_00000137853582155547336540000016957611816213152930_" gradientUnits="userSpaceOnUse" x1="14.4797" y1="10.1166" x2="6.6608" y2="-0.6701" gradientTransform="matrix(1 0 0 -1 0 26)">
		<stop  offset="0" style="stop-color:#FFBC47;stop-opacity:0"/>
		<stop  offset="1" style="stop-color:#C86F34"/>
	</linearGradient>
	<path style="fill:url(#SVGID_00000137853582155547336540000016957611816213152930_);" d="M13.8,17.9c0-0.2,0-0.4-0.1-0.6
		c-0.1,0.5-0.5,1.3-1,1.3c-0.4,0-0.7-0.1-1-0.8c0,0,0,0.1,0,0.1c0,1.4,0.5,1.6,1,1.6C13.3,19.5,13.8,19.1,13.8,17.9z"/>
	
		<linearGradient id="SVGID_00000142171852216883840880000006305963628807492745_" gradientUnits="userSpaceOnUse" x1="5.766" y1="10.2508" x2="8.0565" y2="11.9963" gradientTransform="matrix(1 0 0 -1 0 26)">
		<stop  offset="1.325650e-03" style="stop-color:#FFCB4B"/>
		<stop  offset="1" style="stop-color:#FFD748"/>
	</linearGradient>
	<path style="fill:url(#SVGID_00000142171852216883840880000006305963628807492745_);" d="M6.2,16.5c-0.8-0.4-1-1.2-0.5-2.3
		c0.5-1.1,1.3-0.8,1.7-0.6s1.1,1,0.6,1.9C7.6,16.4,6.8,16.8,6.2,16.5z"/>
	
		<linearGradient id="SVGID_00000021080750626390733590000017621805248267735707_" gradientUnits="userSpaceOnUse" x1="8.4428" y1="8.7971" x2="9.754" y2="11.332" gradientTransform="matrix(1 0 0 -1 0 26)">
		<stop  offset="1.325650e-03" style="stop-color:#FFCB4B"/>
		<stop  offset="1" style="stop-color:#FFD748"/>
	</linearGradient>
	<path style="fill:url(#SVGID_00000021080750626390733590000017621805248267735707_);" d="M7.9,17.9c-0.7-0.5-0.6-1.4,0.1-2.5
		c0.8-1.1,1.4-0.6,1.7-0.4c0.3,0.2,0.8,1.2,0.1,2.1C9.4,17.8,8.9,18.6,7.9,17.9z"/>
	
		<linearGradient id="SVGID_00000017493028781133816130000014189784671108760237_" gradientUnits="userSpaceOnUse" x1="10.171" y1="10.5865" x2="-4.491298e-02" y2="11.6709" gradientTransform="matrix(1 0 0 -1 0 26)">
		<stop  offset="0" style="stop-color:#FFBC47;stop-opacity:0"/>
		<stop  offset="1" style="stop-color:#C86F34"/>
	</linearGradient>
	<path style="fill:url(#SVGID_00000017493028781133816130000014189784671108760237_);" d="M6.4,16.1c-0.6-0.3-0.6-1.9,0.1-2.7
		c-0.3,0.1-0.6,0.3-0.8,0.8c-0.5,1.1-0.3,1.9,0.5,2.3c0.6,0.3,1.4-0.1,1.8-1C8,15.5,7.2,16.4,6.4,16.1z"/>
	
		<linearGradient id="SVGID_00000169555178349235860800000002297328098219248265_" gradientUnits="userSpaceOnUse" x1="11.2877" y1="13.0655" x2="2.4439" y2="0.865" gradientTransform="matrix(1 0 0 -1 0 26)">
		<stop  offset="0" style="stop-color:#FFBC47;stop-opacity:0"/>
		<stop  offset="1" style="stop-color:#C86F34"/>
	</linearGradient>
	<path style="fill:url(#SVGID_00000169555178349235860800000002297328098219248265_);" d="M7.9,17.9c0.5,0.4,0.9,0.3,1.2,0.1
		c-0.5,0-1.2-0.3-1.2-1c0-0.9,0.5-1.8,1.5-2.2c-0.4-0.2-0.9-0.2-1.4,0.6C7.3,16.5,7.2,17.5,7.9,17.9z"/>
	<path class="st3" d="M5.7,14.2c0.1-0.3,0.3-0.6,0.7-0.7c0.3-0.1,0.7-0.1,1,0.1c0.3,0.2,0.5,0.4,0.7,0.7c0.1,0.3,0.2,0.7,0.1,1
		c0,0,0,0-0.1,0c0,0,0,0,0,0l0,0c0,0,0,0,0-0.1C8.3,15,8.6,14.7,9,14.7c0.2,0,0.4,0.1,0.6,0.2c0.2,0.1,0.3,0.2,0.4,0.4
		c0.2,0.3,0.3,0.7,0.3,1.1c0,0,0,0.1,0,0.1l0,0.1v0c0.1,0-0.1-0.1-0.1-0.1l0,0l0,0l0,0l0,0c0.1,0,0.2-0.1,0.3-0.1
		c0.2-0.1,0.4-0.1,0.6-0.1c0.4,0,0.8,0.3,0.8,0.7c0,0,0,0.1,0,0.1l0,0l0,0v0c0,0-0.1,0-0.1,0l0,0l0,0l0-0.1c0-0.1,0.1-0.2,0.2-0.2
		c0.1-0.1,0.3-0.2,0.5-0.3c0.4-0.1,0.8,0.1,1,0.4c0.2,0.3,0.3,0.7,0.3,1.1c0-0.4-0.1-0.7-0.3-1c-0.2-0.3-0.6-0.5-0.9-0.4
		c-0.2,0-0.3,0.1-0.4,0.3C12,16.9,12,16.9,11.9,17l0,0.1l0,0l0,0c0.1,0-0.1,0-0.1,0v0l0,0l0,0c0,0,0-0.1,0-0.1
		c-0.1-0.4-0.4-0.6-0.8-0.6c-0.2,0-0.4,0-0.5,0.1c-0.1,0-0.2,0.1-0.2,0.1l0,0l0,0l0,0l0,0c0,0-0.1-0.1-0.1-0.1v0l0-0.1
		c0,0,0-0.1,0-0.1c0-0.4-0.1-0.7-0.3-1c-0.1-0.2-0.2-0.3-0.4-0.4c-0.2-0.1-0.3-0.1-0.5-0.1c-0.4,0-0.7,0.3-0.9,0.6l0-0.1l0,0l-0.1,0
		c0.1-0.3,0.1-0.7-0.1-1c-0.1-0.3-0.4-0.6-0.6-0.7c-0.3-0.1-0.6-0.2-1-0.1C6.1,13.6,5.9,13.9,5.7,14.2z"/>
	<path class="st3" d="M9.7,15c-0.2-0.2-0.5-0.3-0.8-0.2c-0.3,0-0.5,0.2-0.7,0.4c-0.2,0.2-0.3,0.4-0.5,0.7c-0.1,0.2-0.3,0.5-0.3,0.8
		c0-0.3,0.1-0.6,0.3-0.8c0.1-0.3,0.3-0.5,0.5-0.7c0.2-0.2,0.5-0.4,0.8-0.4C9.3,14.7,9.5,14.8,9.7,15z"/>
	<path class="st3" d="M10,15.4c0.2,0.4,0.3,0.9,0.1,1.3C10,17,9.9,17.2,9.7,17.3c-0.1,0.2-0.3,0.4-0.5,0.5c0.1-0.2,0.3-0.4,0.4-0.5
		c0.1-0.2,0.3-0.4,0.4-0.6C10.2,16.3,10.2,15.9,10,15.4z"/>
	<path class="st3" d="M11.5,16.5c0.2,0.1,0.3,0.3,0.4,0.5c0.1,0.2,0,0.4,0,0.6c-0.1,0.4-0.2,0.8-0.5,1.1c0.1-0.2,0.2-0.4,0.2-0.5
		c0.1-0.2,0.1-0.4,0.1-0.6C11.9,17.2,11.8,16.8,11.5,16.5z"/>
	
		<linearGradient id="SVGID_00000108992856562438047340000008365747494123736972_" gradientUnits="userSpaceOnUse" x1="8.0142" y1="22.9781" x2="11.4453" y2="12.3308" gradientTransform="matrix(1 0 0 -1 0 26)">
		<stop  offset="0" style="stop-color:#FFBC47;stop-opacity:0"/>
		<stop  offset="1" style="stop-color:#C86F34"/>
	</linearGradient>
	<path style="fill:url(#SVGID_00000108992856562438047340000008365747494123736972_);" d="M10.9,4.6c-0.1,0-0.2,0-0.4,0
		c-1.9,0-2.6,2-3,2.6c-0.3,0.5-0.4,1.1,0,1.5c0,0,0-0.2-0.1-0.4C7.3,7.8,7.9,5.3,10.9,4.6z"/>
	<path class="st3" d="M10.5,4.5c-0.4,0-0.9,0.1-1.3,0.4C8.9,5.1,8.6,5.5,8.3,5.8C8.1,6.2,7.9,6.6,7.7,7C7.4,7.4,7.3,7.8,7.4,8.2
		c0.1,0.2,0.2,0.4,0.4,0.5c0.2,0.1,0.4,0.2,0.6,0.2c0.4,0,0.8-0.3,1.1-0.6c0.3-0.3,0.6-0.7,0.9-1c0.2-0.2,0.3-0.3,0.5-0.4
		c0.2-0.1,0.5-0.1,0.7,0c0.8,0.3,1.6,0.9,2.3,1.4c0.4,0.3,0.7,0.5,1.1,0.8c0.4,0.2,0.8,0.5,1.2,0.7c0.8,0.4,1.6,0.9,2.3,1.3
		c0.4,0.3,0.7,0.6,0.9,1c0.2,0.4,0.5,0.8,0.6,1.2c-0.4-0.8-0.8-1.6-1.6-2.1c-0.7-0.5-1.5-0.9-2.3-1.3c-0.4-0.2-0.8-0.4-1.2-0.7
		c-0.4-0.2-0.7-0.5-1.1-0.8c-0.7-0.5-1.4-1.1-2.3-1.4c-0.2-0.1-0.4-0.1-0.6,0c-0.2,0.1-0.3,0.3-0.5,0.4c-0.3,0.3-0.6,0.7-0.9,1
		C9.2,8.7,8.8,9,8.3,9C8.1,9,7.9,8.9,7.7,8.8C7.5,8.7,7.3,8.5,7.3,8.2C7.2,7.8,7.4,7.3,7.6,7C7.8,6.6,8,6.2,8.3,5.8
		c0.3-0.4,0.6-0.7,1-0.9C9.6,4.6,10.1,4.5,10.5,4.5z"/>
	
		<radialGradient id="SVGID_00000107553002704006100060000014504827988382116279_" cx="-503.7584" cy="299.7397" r="0.3236" gradientTransform="matrix(3.7057 -5.0717 -2.4708 -1.8053 2616.594 -2007.0989)" gradientUnits="userSpaceOnUse">
		<stop  offset="0" style="stop-color:#FBE07A"/>
		<stop  offset="0.2654" style="stop-color:#FCDF73;stop-opacity:0.7346"/>
		<stop  offset="0.6548" style="stop-color:#FDDB5F;stop-opacity:0.3452"/>
		<stop  offset="1" style="stop-color:#FFD748;stop-opacity:0"/>
	</radialGradient>
	<path style="opacity:0.75;fill:url(#SVGID_00000107553002704006100060000014504827988382116279_);enable-background:new    ;" d="
		M10.4,5.1c0.5,0.3,0.1,1.3-0.5,2.2c-0.5,0.8-1.4,1.3-1.9,1C7.6,8,7.3,7.7,8.4,6.2C9,5.3,10,4.8,10.4,5.1z"/>
	
		<radialGradient id="SVGID_00000181776083819052633900000013837990277960124591_" cx="-522.333" cy="381.6526" r="0.3238" gradientTransform="matrix(2.6975 -6.1209 -4.3566 -1.92 3075.1243 -2456.917)" gradientUnits="userSpaceOnUse">
		<stop  offset="0" style="stop-color:#FBE07A"/>
		<stop  offset="0.2654" style="stop-color:#FCDF73;stop-opacity:0.7346"/>
		<stop  offset="0.6548" style="stop-color:#FDDB5F;stop-opacity:0.3452"/>
		<stop  offset="1" style="stop-color:#FFD748;stop-opacity:0"/>
	</radialGradient>
	<path style="opacity:0.75;fill:url(#SVGID_00000181776083819052633900000013837990277960124591_);enable-background:new    ;" d="
		M4.4,5.5C5.2,5.9,5.1,7,4.8,8.1C4.5,9,3.4,9.7,2.7,9.4C1.9,9.1,1.2,8.7,2,6.9C2.5,5.8,3.6,5.2,4.4,5.5z"/>
	
		<radialGradient id="SVGID_00000012466633450313755470000002964913730238019237_" cx="-401.4748" cy="408.043" r="0.3235" gradientTransform="matrix(6.3922 2.0219 0.8922 -2.8206 2217.0974 1969.8671)" gradientUnits="userSpaceOnUse">
		<stop  offset="0" style="stop-color:#FBE07A"/>
		<stop  offset="0.2654" style="stop-color:#FCDF73;stop-opacity:0.7346"/>
		<stop  offset="0.6548" style="stop-color:#FDDB5F;stop-opacity:0.3452"/>
		<stop  offset="1" style="stop-color:#FFD748;stop-opacity:0"/>
	</radialGradient>
	<path style="opacity:0.75;fill:url(#SVGID_00000012466633450313755470000002964913730238019237_);enable-background:new    ;" d="
		M16.8,7.9c-0.3,0.5-1.5,0.4-2.6,0.1c-0.9-0.2-1.7-0.9-1.4-1.4s0.7-0.8,2.6-0.2C16.5,6.7,17.1,7.4,16.8,7.9z"/>
	
		<radialGradient id="SVGID_00000054251802827202751610000013911811246243271559_" cx="-379.6785" cy="537.2928" r="0.3235" gradientTransform="matrix(3.2771 4.9152 3.7412 -2.4943 -746.0393 3214.5857)" gradientUnits="userSpaceOnUse">
		<stop  offset="0" style="stop-color:#FBE07A"/>
		<stop  offset="0.2654" style="stop-color:#FCDF73;stop-opacity:0.7346"/>
		<stop  offset="0.6548" style="stop-color:#FDDB5F;stop-opacity:0.3452"/>
		<stop  offset="1" style="stop-color:#FFD748;stop-opacity:0"/>
	</radialGradient>
	<path style="opacity:0.75;fill:url(#SVGID_00000054251802827202751610000013911811246243271559_);enable-background:new    ;" d="
		M20.8,9.8c-0.7,0.3-1.7-0.2-2.3-1.1C17.9,8,18,7,18.7,6.7c0.7-0.3,1.4-0.5,2.4,0.9C21.7,8.4,21.5,9.4,20.8,9.8z"/>
</g>
</svg>
