<?xml version="1.0" encoding="utf-8"?>
<!-- Generator: Adobe Illustrator 27.0.1, SVG Export Plug-In . SVG Version: 6.00 Build 0)  -->
<svg version="1.1" id="Layer_1" xmlns="http://www.w3.org/2000/svg" xmlns:xlink="http://www.w3.org/1999/xlink" x="0px" y="0px"
	 viewBox="0 0 900 900" style="enable-background:new 0 0 900 900;" xml:space="preserve">
<style type="text/css">
	.st0{fill:#FFFFFF;}
</style>
<g id="Layer_2_00000045577482058529199730000004448242454071483818_">
</g>
<g id="Layer_1_00000126305903697383285930000001508333864561241220_">
	<path class="st0" d="M779,473.5c10.6-10.5,17.5-25.9,13.4-46.3c-3.5-17.1-17.9-31.4-34.6-32.9c-11-1-20.5,1.9-30.6,7.3
		c0,0-26.5-15.4-62.4-36.3c33.5-19.5,65.4-38,90.1-52.3c5.7-3.4,15.4-10,24.1-18.5c10.6-10.5,17.5-25.9,13.4-46.3
		c-3.5-17.1-17.9-31.4-34.6-32.9c-11-1-20.5,1.9-30.6,7.3c0,0-256.9-149.5-260-151.2c-3.1-1.8-6.4-3.4-10.4-3.6
		c-4.5-0.3-8.7,2.5-12.1,4.4c-107.7,62.6-230.6,134.2-323.3,188c-2.9,1.7-5.4,3.4-8.2,5.1c-3.9,2.6-7,5.8-7,10.5
		c0,4.5,3.2,7.7,6,9.6c2.5,1.8,3.6,2.5,8.9,5.4c20.6,11.9,72.8,42.3,127.7,74.3c-45.5,26.5-89,51.7-127.4,74
		c-2.9,1.7-5.4,3.4-8.2,5.1c-3.9,2.6-7,5.8-7,10.5c0,4.5,3.2,7.7,6,9.6c2.5,1.8,3.6,2.5,8.9,5.4c20.6,11.9,72.8,42.3,127.7,74.3
		c-45.5,26.5-89,51.7-127.4,74c-2.9,1.7-5.4,3.4-8.2,5.1c-3.9,2.6-7,5.8-7,10.5c0,4.5,3.2,7.7,6,9.6c2.5,1.8,3.6,2.5,8.9,5.4
		c41.6,24.1,212,123.3,274,159.5c6.2,3.6,19.2,11,25.8,14.1c12.6,6,28.5,10.9,41.9,9.9c19.3-1.6,32.9-10.9,51-21.4
		c63-36.7,176.8-103,241.1-140.2c5.7-3.4,15.4-10,24.1-18.5c10.6-10.5,17.5-25.9,13.4-46.3c-3.5-17.1-17.9-31.4-34.6-32.9
		c-11-1-20.5,1.9-30.6,7.3c0,0-26.5-15.4-62.4-36.3c33.5-19.5,65.4-38,90.1-52.3C760.6,488.7,770.3,482.1,779,473.5z M137.8,275.6
		c0.1-3.2,1.6-4.9,3.8-6.2L448.4,91.1c5.1-3,11.4-3,16.6,0l244.2,142c0,0-178.7,104-244.7,142.3c-5.3,3.1-15.6,9.5-19.3,12.6
		c-4.8,4-8.3,9.2-10,15.6c-3.4,13.1,2.6,23.3,9.7,27.2c10.5,5.8,18.9,1.6,18.9-3.8c-7.8-2.9-9.9-9.3-8.7-15.8
		c1-5.8,5.4-10.2,12.6-11.3c10.5-1.6,19.8,4.9,22.4,18.4c2.5,13.1-2.3,24.3-11,30.5c-17.5,12.7-40.3,6.1-56.2-3.1
		c-14.4-8.4-227.2-132.1-281.3-163.7C139.6,280.8,137.7,278.9,137.8,275.6z M709.2,591.2c0,0-178.7,104-244.7,142.3
		c-5.3,3.1-15.6,9.5-19.3,12.6c-4.8,4-8.3,9.2-10,15.6c-3.4,13.1,2.6,23.3,9.7,27.2c10.5,5.8,18.9,1.6,18.9-3.8
		c-7.8-2.9-9.9-9.3-8.7-15.8c1-5.8,5.4-10.2,12.6-11.3c10.5-1.6,19.8,4.9,22.4,18.4c2.5,13.1-2.3,24.3-11,30.5
		c-17.5,12.7-40.3,6.1-56.2-3.1c-14.4-8.4-227.2-132.1-281.3-163.7c-2.2-1.3-4-3.2-4-6.5c0.1-3.2,1.6-4.9,3.8-6.2l125.1-72.8
		c-6-3.5,97,56.4,128.3,74.7c6.2,3.6,19.2,11,25.8,14.1c12.6,6,28.5,10.9,41.9,9.9c19.3-1.6,32.9-10.9,51-21.4
		c38.8-22.6,138.8-80.8,132.9-77.4L709.2,591.2z M464.5,554.3c-5.3,3.1-15.6,9.5-19.3,12.6c-4.8,4-8.3,9.2-10,15.6
		c-3.4,13.1,2.6,23.3,9.7,27.2c10.5,5.8,18.9,1.6,18.9-3.8c-7.8-2.9-9.9-9.3-8.7-15.8c1-5.8,5.4-10.2,12.6-11.3
		c10.5-1.6,19.8,4.9,22.4,18.4c2.5,13.1-2.3,24.3-11,30.5c-17.5,12.7-40.3,6.1-56.2-3.1c-14.4-8.4-227.2-132.1-281.3-163.7
		c-2.2-1.3-4-3.2-4-6.5c0.1-3.2,1.6-4.9,3.8-6.2l125.1-72.8c50.3,29.3,100.2,58.4,128.3,74.7c6.2,3.6,19.2,11,25.8,14.1
		c12.6,6,28.5,10.9,41.9,9.9c19.3-1.6,32.9-10.9,51-21.4C552,430.3,652,372,646.4,375.3l62.5,36.4
		C709.2,412.2,530.5,516.1,464.5,554.3z"/>
</g>
</svg>
