<?xml version="1.0" encoding="utf-8"?>
<!-- Generator: Adobe Illustrator 27.0.1, SVG Export Plug-In . SVG Version: 6.00 Build 0)  -->
<svg version="1.1" id="Layer_1" xmlns="http://www.w3.org/2000/svg" xmlns:xlink="http://www.w3.org/1999/xlink" x="0px" y="0px"
	 viewBox="0 0 200 200" style="enable-background:new 0 0 200 200;" xml:space="preserve">
<style type="text/css">
	.st0{fill:#A3A5A8;}
	.st1{fill:#DD2E44;}
	.st2{fill:#CCD6DD;}
	.st3{fill:#BE1931;}
	.st4{fill:#AAB8C2;}
	.st5{fill:#292F33;}
</style>
<g>
	<path class="st0" d="M144.4,0H55.6C44.8,0,36.1,8.8,36.1,19.7v22.5h16.7V19.7c0-1.5,1.3-2.8,2.8-2.8h88.9c1.5,0,2.8,1.3,2.8,2.8
		v22.5h16.7V19.7C163.9,8.8,155.2,0,144.4,0z"/>
	<path class="st1" d="M200,176.1c0,0,0,23.9-23.5,23.9H23.5C0,200,0,176.1,0,176.1V62.8c0-23.9,23.5-23.9,23.5-23.9h152.9
		c0,0,23.5,0,23.5,23.9L200,176.1L200,176.1z"/>
	<path class="st2" d="M22.2,121.1h155.6v11.3H22.2V121.1z"/>
	<path class="st3" d="M0,81.7h200V93H0V81.7z M22.2,132.4h155.6v11.3H22.2V132.4z M22.2,166.2h155.6v11.3H22.2V166.2z"/>
	<path class="st2" d="M22.2,154.9h155.6v11.3H22.2V154.9z"/>
	<path class="st4" d="M55.6,104.2H44.4c-3.1,0-5.6-2.5-5.6-5.6V76.1c0-3.1,2.5-5.6,5.6-5.6h11.1c3.1,0,5.6,2.5,5.6,5.6v22.5
		C61.1,101.7,58.6,104.2,55.6,104.2z M155.6,104.2h-11.1c-3.1,0-5.6-2.5-5.6-5.6V76.1c0-3.1,2.5-5.6,5.6-5.6h11.1
		c3.1,0,5.6,2.5,5.6,5.6v22.5C161.1,101.7,158.6,104.2,155.6,104.2z"/>
	<path class="st5" d="M138.9,93v5.6c0,3.1,2.5,5.6,5.6,5.6h11.1c3.1,0,5.6-2.5,5.6-5.6V93H138.9z M38.9,93v5.6
		c0,3.1,2.5,5.6,5.6,5.6h11.1c3.1,0,5.6-2.5,5.6-5.6V93H38.9z"/>
	<path class="st5" d="M144.4,81.7h11.1v16.9h-11.1V81.7z M44.4,81.7h11.1v16.9H44.4V81.7z"/>
</g>
</svg>
