<?xml version="1.0" encoding="UTF-8"?>
<svg id="Layer_1" data-name="Layer 1" xmlns="http://www.w3.org/2000/svg" viewBox="0 0 3000 803.71">
  <g id="Layer_1-2" data-name="Layer 1">
    <g id="Layer_1-3" data-name="Layer 1">
      <g>
        <g>
          <path d="M1007.71,676.6h-89.76V157.66h273.49c125.25,0,180.08,46,180.08,152.73,0,65.92-22.3,110.38-67.46,132.68,41.51,18.51,62.27,55.54,62.27,109.68v123.84h-89.62v-120.06c0-48.25-27.49-69-89.62-69h-179.38v189.06Zm0-273.49h178.68c65.92,0,95.65-24.4,95.65-80.79s-28.19-80.08-95.65-80.08h-178.68v160.87Z"/>
          <path d="M1609.4,284.45c69,0,119.35,15.57,151.19,47.41,31.84,31.84,47.41,82.33,47.41,151.89s-15.57,120.06-47.41,151.89c-31.84,31.84-82.33,47.41-151.19,47.41s-119.35-15.57-150.49-47.41c-31.84-31.84-47.41-82.33-47.41-151.89s15.57-120.06,47.41-151.89c31.14-31.84,81.63-47.41,150.49-47.41Zm-113.46,199.44c0,42.22,8.84,72.65,27.49,91.16,17.81,19.21,46.7,28.89,85.97,28.89,80.08,0,114.17-36.33,114.17-120.06s-34.08-120.06-114.17-120.06c-39.27,0-68.16,9.68-85.97,28.19-18.51,19.21-27.49,49.65-27.49,91.87Z"/>
          <path d="M1858.49,676.6V120.64h83.73V676.6h-83.73Z"/>
          <path d="M2026.65,676.6V120.64h83.73V676.6h-83.73Z"/>
          <path d="M2278.68,676.6h-83.73V120.64h83.73V440.83h39.27l117.11-149.79h101.54l-148.25,188.22,163.81,197.19h-103.79l-129.73-156.38h-39.97v156.52Z"/>
          <path d="M2576.72,181.51c0-18.51,4.49-32.68,12.62-41.51,8.13-8.13,22.3-12.62,40.81-12.62,37.87,0,53.44,16.27,53.44,54.14s-15.57,52.59-53.44,52.59c-18.51,0-32.68-4.49-40.81-12.62-8.13-8.13-12.62-21.46-12.62-39.97Zm11.08,495.09V291.18h83.73v385.41h-83.73Z"/>
          <path d="M2882.89,291.18h111.92v78.54h-111.92v166.06c0,43.76,19.21,62.27,66.76,62.27h50.35v78.54h-52.59c-103.79,0-148.25-39.97-148.25-131.14v-175.74h-60.73v-78.54h60.73v-84.43h83.73v84.43Z"/>
        </g>
        <path d="M706.87,426.53c11.22-11.08,18.37-27.21,14.03-48.67-3.65-17.95-18.79-32.96-36.33-34.64-11.64-1.12-21.46,1.96-32.12,7.57,0,0-27.77-16.13-65.5-38.15,35.2-20.48,68.72-39.83,94.67-54.84,6.03-3.51,16.27-10.52,25.25-19.35,11.22-11.08,18.37-27.21,14.03-48.67-3.65-17.95-18.79-32.96-36.33-34.64-11.64-1.12-21.46,1.96-32.12,7.57,0,0-269.85-157.08-273.07-158.91-3.37-1.82-6.59-3.51-10.8-3.79-4.77-.28-9.12,2.66-12.62,4.63C242.78,70.57,113.6,145.74,16.27,202.26c-2.95,1.68-5.75,3.51-8.56,5.33-4.07,2.66-7.43,6.17-7.43,11.08s3.37,7.99,6.17,10.1c2.66,1.82,3.79,2.52,9.4,5.75,21.6,12.62,76.44,44.46,134.08,77.98-47.83,27.77-93.55,54.42-133.8,77.84-2.95,1.68-5.75,3.51-8.56,5.33-4.07,2.66-7.43,6.17-7.43,11.08s3.37,7.99,6.17,10.1c2.66,1.82,3.79,2.52,9.4,5.75,21.6,12.62,76.44,44.46,134.08,77.98-47.83,27.77-93.55,54.42-133.8,77.84-2.95,1.68-5.75,3.51-8.56,5.33-4.07,2.66-7.43,6.17-7.43,11.08s3.37,7.99,6.17,10.1c2.66,1.82,3.79,2.52,9.4,5.75,43.9,25.53,222.86,129.59,288.08,167.74,6.45,3.79,20.06,11.64,27.07,14.87,13.18,6.17,30.01,11.5,44.04,10.24,20.34-1.68,34.64-11.36,53.58-22.44,66.2-38.57,185.55-108.13,253.3-147.27,6.03-3.51,16.27-10.52,25.25-19.35,11.22-11.08,18.37-27.21,14.03-48.67-3.65-17.95-18.79-32.96-36.33-34.64-11.64-1.12-21.46,1.96-32.12,7.57,0,0-27.77-16.13-65.5-38.15,35.2-20.48,68.72-39.83,94.67-54.84,5.89-3.23,16.13-10.24,25.25-19.21ZM33.52,218.67c.14-3.37,1.68-5.05,4.07-6.45L359.75,24.84c5.33-3.09,12.06-3.09,17.39,0l256.52,149.09s-187.66,109.26-256.94,149.37c-5.61,3.23-16.27,9.96-20.2,13.32-5.05,4.21-8.7,9.68-10.52,16.41-3.51,13.74,2.81,24.4,10.24,28.61,11.08,6.17,19.92,1.68,19.78-3.93-8.27-3.09-10.24-9.68-9.12-16.55,1.12-6.03,5.75-10.66,13.18-11.78,10.94-1.68,20.9,5.19,23.56,19.35,2.66,13.74-2.52,25.53-11.5,32.12-18.37,13.46-42.36,6.45-58.91-3.23-15.15-8.84-238.71-138.85-295.51-171.95-2.38-1.54-4.35-3.65-4.21-7.01Zm600,331.42s-187.66,109.26-256.94,149.37c-5.61,3.23-16.27,9.96-20.2,13.32-5.05,4.21-8.7,9.68-10.52,16.41-3.51,13.74,2.81,24.4,10.24,28.61,11.08,6.17,19.92,1.68,19.78-3.93-8.27-3.09-10.24-9.68-9.12-16.55,1.12-6.03,5.75-10.66,13.18-11.78,10.94-1.68,20.9,5.19,23.56,19.35,2.66,13.74-2.52,25.53-11.5,32.12-18.37,13.46-42.36,6.45-58.91-3.23-15.15-8.84-238.71-138.85-295.51-171.95-2.38-1.4-4.35-3.37-4.21-6.73,.14-3.37,1.68-5.05,4.07-6.45l131.42-76.44c-6.17-3.65,101.82,59.33,134.64,78.54,6.45,3.79,20.06,11.64,27.07,14.87,13.18,6.17,30.01,11.5,44.04,10.24,20.34-1.68,34.64-11.36,53.58-22.44,40.67-23.7,145.72-84.85,139.55-81.21l65.78,37.87Zm-256.94-38.71c-5.61,3.23-16.27,9.96-20.2,13.32-5.05,4.21-8.7,9.68-10.52,16.41-3.51,13.74,2.81,24.4,10.24,28.61,11.08,6.17,19.92,1.68,19.78-3.93-8.27-3.09-10.24-9.68-9.12-16.55,1.12-6.03,5.75-10.66,13.18-11.78,10.94-1.68,20.9,5.19,23.56,19.35,2.66,13.74-2.52,25.53-11.5,32.12-18.37,13.46-42.36,6.45-58.91-3.23-15.15-8.84-238.71-138.85-295.51-171.95-2.38-1.4-4.35-3.37-4.21-6.73,.14-3.37,1.68-5.05,4.07-6.45l131.42-76.44c52.73,30.72,105.33,61.29,134.64,78.54,6.45,3.79,20.06,11.64,27.07,14.87,13.18,6.17,30.01,11.5,44.04,10.24,20.34-1.68,34.64-11.36,53.58-22.44,40.53-23.56,145.44-84.71,139.55-81.21l65.78,38.15c0-.28-187.66,108.98-256.94,149.09Z"/>
      </g>
    </g>
  </g>
</svg>