<?xml version="1.0" encoding="UTF-8"?>
<svg id="Layer_1" data-name="Layer 1" xmlns="http://www.w3.org/2000/svg" viewBox="0 0 1080 1080">
  <defs>
    <style>
      .cls-1 {
        fill: #fff;
      }
    </style>
  </defs>
  <g id="Layer_1-2" data-name="Layer 1">
    <path class="cls-1" d="M1004.95,573.19c14.98-14.83,24.72-36.59,18.93-65.41-4.94-24.16-25.29-44.36-48.88-46.48-15.54-1.41-28.96,2.68-43.23,10.31,0,0-37.44-21.76-88.16-51.28,47.33-27.55,92.4-53.69,127.29-73.89,8.05-4.8,21.76-14.13,34.05-26.14,14.98-14.83,24.72-36.59,18.93-65.41-4.94-24.16-25.29-44.36-48.88-46.48-15.54-1.41-28.96,2.68-43.23,10.31,0,0-362.94-211.21-367.32-213.61-4.38-2.54-9.04-4.8-14.69-5.09-6.36-.42-12.29,3.53-17.09,6.22C380.5,94.69,206.87,195.84,75.9,271.85c-4.1,2.4-7.63,4.8-11.58,7.21-5.51,3.67-9.89,8.19-9.89,14.83s4.52,10.88,8.48,13.56c3.53,2.54,5.09,3.53,12.57,7.63,29.1,16.81,102.85,59.76,180.41,104.97-64.28,37.44-125.74,73.04-179.99,104.55-4.1,2.4-7.63,4.8-11.58,7.21-5.51,3.67-9.89,8.19-9.89,14.83s4.52,10.88,8.48,13.56c3.53,2.54,5.09,3.53,12.57,7.63,29.1,16.81,102.85,59.76,180.41,104.97-64.28,37.44-125.74,73.04-179.99,104.55-4.1,2.4-7.63,4.8-11.58,7.21-5.51,3.67-9.89,8.19-9.89,14.83s4.52,10.88,8.48,13.56c3.53,2.54,5.09,3.53,12.57,7.63,58.77,34.05,299.51,174.2,387.1,225.34,8.76,5.09,27.13,15.54,36.45,19.92,17.8,8.48,40.26,15.4,59.2,13.99,27.27-2.26,46.48-15.4,72.05-30.23,89-51.85,249.78-145.52,340.62-198.07,8.05-4.8,21.76-14.13,34.05-26.14,14.98-14.83,24.72-36.59,18.93-65.41-4.94-24.16-25.29-44.36-48.88-46.48-15.54-1.41-28.96,2.68-43.23,10.31,0,0-37.44-21.76-88.16-51.28,47.33-27.55,92.4-53.69,127.29-73.89,8.05-3.96,21.76-13.28,34.05-25.43ZM99.07,293.61c.14-4.52,2.26-6.92,5.37-8.76L537.88,32.95c7.21-4.24,16.11-4.24,23.45,0l345,200.61s-252.46,146.93-345.71,201.04c-7.49,4.38-22.04,13.42-27.27,17.8-6.78,5.65-11.73,13-14.13,22.04-4.8,18.51,3.67,32.92,13.7,38.43,14.83,8.19,26.7,2.26,26.7-5.37-11.02-4.1-13.99-13.14-12.29-22.32,1.41-8.19,7.63-14.41,17.8-15.96,14.83-2.26,27.97,6.92,31.65,26,3.53,18.51-3.25,34.33-15.54,43.09-24.72,17.94-56.93,8.62-79.4-4.38-20.34-11.87-320.98-186.63-397.41-231.27-2.83-1.7-5.51-4.38-5.37-9.04Zm807.26,445.87s-252.46,146.93-345.71,201.04c-7.49,4.38-22.04,13.42-27.27,17.8-6.78,5.65-11.73,13-14.13,22.04-4.8,18.51,3.67,32.92,13.7,38.43,14.83,8.19,26.7,2.26,26.7-5.37-11.02-4.1-13.99-13.14-12.29-22.32,1.41-8.19,7.63-14.41,17.8-15.96,14.83-2.26,27.97,6.92,31.65,26,3.53,18.51-3.25,34.33-15.54,43.09-24.72,17.94-56.93,8.62-79.4-4.38-20.34-11.87-320.98-186.63-397.41-231.27-3.11-1.84-5.65-4.52-5.65-9.18,.14-4.52,2.26-6.92,5.37-8.76l176.74-102.85c-8.48-4.94,137.04,79.68,181.26,105.53,8.76,5.09,27.13,15.54,36.45,19.92,17.8,8.48,40.26,15.4,59.2,13.99,27.27-2.26,46.48-15.4,72.05-30.23,54.82-31.93,196.09-114.15,187.76-109.35l88.72,51.85Zm-345.71-52.13c-7.49,4.38-22.04,13.42-27.27,17.8-6.78,5.65-11.73,13-14.13,22.04-4.8,18.51,3.67,32.92,13.7,38.43,14.83,8.19,26.7,2.26,26.7-5.37-11.02-4.1-13.99-13.14-12.29-22.32,1.41-8.19,7.63-14.41,17.8-15.96,14.83-2.26,27.97,6.92,31.65,26,3.53,18.51-3.25,34.33-15.54,43.09-24.72,17.94-56.93,8.62-79.4-4.38-20.34-11.87-320.98-186.63-397.41-231.27-3.11-1.84-5.65-4.52-5.65-9.18,.14-4.52,2.26-6.92,5.37-8.76l176.74-102.85c71.06,41.39,141.56,82.51,181.26,105.53,8.76,5.09,27.13,15.54,36.45,19.92,17.8,8.48,40.26,15.4,59.2,13.99,27.27-2.26,46.48-15.4,72.05-30.23,54.39-31.65,195.67-114.01,187.76-109.35l88.3,51.43c.42,.71-252.04,147.49-345.28,201.46Z"/>
  </g>
</svg>