<?xml version="1.0" encoding="UTF-8"?>
<svg id="Layer_1" data-name="Layer 1" xmlns="http://www.w3.org/2000/svg" viewBox="0 0 1080 1080">
  <defs>
    <style>
      .cls-1 {
        fill: #fff;
      }
    </style>
  </defs>
  <g id="Layer_1-2" data-name="Layer 1">
    <path class="cls-1" d="M934.92,568.2c12.72-12.6,21-31.08,16.08-55.56-4.2-20.52-21.48-37.68-41.52-39.48-13.2-1.2-24.6,2.28-36.72,8.76,0,0-31.8-18.48-74.88-43.56,40.2-23.4,78.48-45.6,108.12-62.76,6.84-4.08,18.48-12,28.92-22.2,12.72-12.6,21-31.08,16.08-55.56-4.2-20.52-21.48-37.68-41.52-39.48-13.2-1.2-24.6,2.28-36.72,8.76,0,0-308.28-179.4-312-181.44-3.72-2.16-7.68-4.08-12.48-4.32-5.4-.36-10.44,3-14.52,5.28-129.24,75.12-276.72,161.04-387.96,225.6-3.48,2.04-6.48,4.08-9.84,6.12-4.68,3.12-8.4,6.96-8.4,12.6s3.84,9.24,7.2,11.52c3,2.16,4.32,3,10.68,6.48,24.72,14.28,87.36,50.76,153.24,89.16-54.6,31.8-106.8,62.04-152.88,88.8-3.48,2.04-6.48,4.08-9.84,6.12-4.68,3.12-8.4,6.96-8.4,12.6s3.84,9.24,7.2,11.52c3,2.16,4.32,3,10.68,6.48,24.72,14.28,87.36,50.76,153.24,89.16-54.6,31.8-106.8,62.04-152.88,88.8-3.48,2.04-6.48,4.08-9.84,6.12-4.68,3.12-8.4,6.96-8.4,12.6s3.84,9.24,7.2,11.52c3,2.16,4.32,3,10.68,6.48,49.92,28.92,254.4,147.96,328.8,191.4,7.44,4.32,23.04,13.2,30.96,16.92,15.12,7.2,34.2,13.08,50.28,11.88,23.16-1.92,39.48-13.08,61.2-25.68,75.6-44.04,212.16-123.6,289.32-168.24,6.84-4.08,18.48-12,28.92-22.2,12.72-12.6,21-31.08,16.08-55.56-4.2-20.52-21.48-37.68-41.52-39.48-13.2-1.2-24.6,2.28-36.72,8.76,0,0-31.8-18.48-74.88-43.56,40.2-23.4,78.48-45.6,108.12-62.76,6.84-3.36,18.48-11.28,28.92-21.6ZM165.48,330.72c.12-3.84,1.92-5.88,4.56-7.44L538.2,109.32c6.12-3.6,13.68-3.6,19.92,0l293.04,170.4s-214.44,124.8-293.64,170.76c-6.36,3.72-18.72,11.4-23.16,15.12-5.76,4.8-9.96,11.04-12,18.72-4.08,15.72,3.12,27.96,11.64,32.64,12.6,6.96,22.68,1.92,22.68-4.56-9.36-3.48-11.88-11.16-10.44-18.96,1.2-6.96,6.48-12.24,15.12-13.56,12.6-1.92,23.76,5.88,26.88,22.08,3,15.72-2.76,29.16-13.2,36.6-21,15.24-48.36,7.32-67.44-3.72-17.28-10.08-272.64-158.52-337.56-196.44-2.4-1.44-4.68-3.72-4.56-7.68Zm685.68,378.72s-214.44,124.8-293.64,170.76c-6.36,3.72-18.72,11.4-23.16,15.12-5.76,4.8-9.96,11.04-12,18.72-4.08,15.72,3.12,27.96,11.64,32.64,12.6,6.96,22.68,1.92,22.68-4.56-9.36-3.48-11.88-11.16-10.44-18.96,1.2-6.96,6.48-12.24,15.12-13.56,12.6-1.92,23.76,5.88,26.88,22.08,3,15.72-2.76,29.16-13.2,36.6-21,15.24-48.36,7.32-67.44-3.72-17.28-10.08-272.64-158.52-337.56-196.44-2.64-1.56-4.8-3.84-4.8-7.8,.12-3.84,1.92-5.88,4.56-7.44l150.12-87.36c-7.2-4.2,116.4,67.68,153.96,89.64,7.44,4.32,23.04,13.2,30.96,16.92,15.12,7.2,34.2,13.08,50.28,11.88,23.16-1.92,39.48-13.08,61.2-25.68,46.56-27.12,166.56-96.96,159.48-92.88l75.36,44.04Zm-293.64-44.28c-6.36,3.72-18.72,11.4-23.16,15.12-5.76,4.8-9.96,11.04-12,18.72-4.08,15.72,3.12,27.96,11.64,32.64,12.6,6.96,22.68,1.92,22.68-4.56-9.36-3.48-11.88-11.16-10.44-18.96,1.2-6.96,6.48-12.24,15.12-13.56,12.6-1.92,23.76,5.88,26.88,22.08,3,15.72-2.76,29.16-13.2,36.6-21,15.24-48.36,7.32-67.44-3.72-17.28-10.08-272.64-158.52-337.56-196.44-2.64-1.56-4.8-3.84-4.8-7.8,.12-3.84,1.92-5.88,4.56-7.44l150.12-87.36c60.36,35.16,120.24,70.08,153.96,89.64,7.44,4.32,23.04,13.2,30.96,16.92,15.12,7.2,34.2,13.08,50.28,11.88,23.16-1.92,39.48-13.08,61.2-25.68,46.2-26.88,166.2-96.84,159.48-92.88l75,43.68c.36,.6-214.08,125.28-293.28,171.12Z"/>
  </g>
</svg>