<?xml version="1.0" encoding="utf-8"?>
<!-- Generator: Adobe Illustrator 27.0.1, SVG Export Plug-In . SVG Version: 6.00 Build 0)  -->
<svg version="1.1" id="Layer_1" xmlns="http://www.w3.org/2000/svg" xmlns:xlink="http://www.w3.org/1999/xlink" x="0px" y="0px"
	 viewBox="0 0 36 36" style="enable-background:new 0 0 36 36;" xml:space="preserve">
<style type="text/css">
	.st0{fill:#AAB8C2;}
	.st1{fill:#FFAC33;}
</style>
<g>
	<path class="st0" d="M18,1.5c-5.5,0-10,4.5-10,10v10h4v-10c0-3.3,2.7-6,6-6s6,2.7,6,6v10h4v-10C28,6,23.5,1.5,18,1.5z"/>
	<path class="st1" d="M31,30.5c0,2.2-1.8,4-4,4H9c-2.2,0-4-1.8-4-4v-12c0-2.2,1.8-4,4-4h18c2.2,0,4,1.8,4,4V30.5z"/>
</g>
</svg>
