<?xml version="1.0" encoding="utf-8"?>
<!-- Generator: Adobe Illustrator 27.0.1, SVG Export Plug-In . SVG Version: 6.00 Build 0)  -->
<svg version="1.1" id="Layer_1" xmlns="http://www.w3.org/2000/svg" xmlns:xlink="http://www.w3.org/1999/xlink" x="0px" y="0px"
	 viewBox="0 0 200 218.2" style="enable-background:new 0 0 200 218.2;" xml:space="preserve">
<path d="M186,115.2c2.8-2.8,4.6-6.8,3.5-12.1c-0.9-4.5-4.7-8.2-9.1-8.6c-2.9-0.3-5.3,0.5-8,1.9c0,0-6.9-4-16.3-9.5
	c8.8-5.1,17.1-9.9,23.6-13.7c1.5-0.9,4.1-2.6,6.3-4.8c2.8-2.8,4.6-6.8,3.5-12.1c-0.9-4.5-4.7-8.2-9.1-8.6c-2.9-0.3-5.3,0.5-8,1.9
	c0,0-67.3-39.2-68.1-39.6c-0.8-0.5-1.6-0.9-2.7-0.9c-1.2-0.1-2.3,0.7-3.1,1.2C70.3,26.5,38.1,45.3,13.8,59.3
	c-0.7,0.4-1.4,0.9-2.1,1.3c-1,0.7-1.9,1.5-1.9,2.8c0,1.2,0.8,2,1.5,2.5c0.7,0.5,0.9,0.6,2.3,1.4c5.4,3.1,19.1,11.1,33.4,19.4
	c-11.9,6.9-23.3,13.6-33.3,19.4c-0.7,0.4-1.4,0.9-2.1,1.3c-1,0.7-1.9,1.5-1.9,2.8c0,1.2,0.8,2,1.5,2.5c0.7,0.5,0.9,0.6,2.3,1.4
	c5.4,3.1,19.1,11.1,33.4,19.4c-11.9,6.9-23.3,13.6-33.3,19.4c-0.7,0.4-1.4,0.9-2.1,1.3c-1,0.7-1.9,1.5-1.9,2.8c0,1.2,0.8,2,1.5,2.5
	c0.7,0.5,0.9,0.6,2.3,1.4c10.9,6.4,55.5,32.3,71.8,41.8c1.6,0.9,5,2.9,6.7,3.7c3.3,1.5,7.5,2.9,11,2.6c5.1-0.4,8.6-2.8,13.4-5.6
	c16.5-9.6,46.2-27,63.1-36.7c1.5-0.9,4.1-2.6,6.3-4.8c2.8-2.8,4.6-6.8,3.5-12.1c-0.9-4.5-4.7-8.2-9.1-8.6c-2.9-0.3-5.3,0.5-8,1.9
	c0,0-6.9-4-16.3-9.5c8.8-5.1,17.1-9.9,23.6-13.7C181.1,119.2,183.7,117.5,186,115.2L186,115.2z M18.1,63.4c0-0.8,0.4-1.3,1-1.6
	l80.3-46.7c1.3-0.8,3-0.8,4.3,0l63.9,37.2c0,0-46.8,27.2-64,37.2c-1.4,0.8-4.1,2.5-5,3.3c-1.3,1-2.2,2.4-2.6,4.1
	c-0.9,3.4,0.7,6.1,2.6,7.1c2.8,1.5,5,0.4,4.9-1c-2.1-0.8-2.6-2.4-2.3-4.1c0.3-1.5,1.4-2.7,3.3-2.9c2.7-0.4,5.2,1.3,5.9,4.8
	c0.7,3.4-0.6,6.4-2.9,8c-4.6,3.4-10.6,1.6-14.7-0.8c-3.8-2.2-59.5-34.6-73.7-42.9C18.6,64.8,18.1,64.3,18.1,63.4L18.1,63.4z
	 M167.7,146c0,0-46.8,27.2-64,37.2c-1.4,0.8-4.1,2.5-5,3.3c-1.3,1-2.2,2.4-2.6,4.1c-0.9,3.4,0.7,6.1,2.6,7.1c2.8,1.5,5,0.4,4.9-1
	c-2.1-0.8-2.6-2.4-2.3-4.1c0.3-1.5,1.4-2.7,3.3-2.9c2.7-0.4,5.2,1.3,5.9,4.8c0.7,3.4-0.6,6.4-2.9,8c-4.6,3.4-10.6,1.6-14.7-0.8
	c-3.8-2.2-59.5-34.6-73.7-42.9c-0.6-0.3-1.1-0.8-1-1.7c0-0.8,0.4-1.3,1-1.6l32.8-19.1c-1.5-0.9,25.4,14.8,33.6,19.6
	c1.6,0.9,5,2.9,6.7,3.7c3.3,1.5,7.5,2.9,11,2.6c5.1-0.4,8.6-2.8,13.4-5.6c10.1-5.9,36.3-21.1,34.8-20.2L167.7,146L167.7,146z
	 M103.6,136.4c-1.4,0.8-4.1,2.5-5,3.3c-1.3,1-2.2,2.4-2.6,4.1c-0.9,3.4,0.7,6.1,2.6,7.1c2.8,1.5,5,0.4,4.9-1
	c-2.1-0.8-2.6-2.4-2.3-4.1c0.3-1.5,1.4-2.7,3.3-2.9c2.7-0.4,5.2,1.3,5.9,4.8c0.7,3.4-0.6,6.4-2.9,8c-4.6,3.4-10.6,1.6-14.7-0.8
	c-3.8-2.2-59.5-34.6-73.7-42.9c-0.6-0.3-1.1-0.8-1-1.7c0-0.8,0.4-1.3,1-1.6l32.8-19.1C65,97.4,78.1,105,85.4,109.3
	c1.6,0.9,5,2.9,6.7,3.7c3.3,1.5,7.5,2.9,11,2.6c5.1-0.4,8.6-2.8,13.4-5.6c10.1-5.9,36.2-21.1,34.8-20.2l16.4,9.5
	C167.7,99.2,120.9,126.4,103.6,136.4L103.6,136.4z"/>
</svg>
